<svg xmlns="http://www.w3.org/2000/svg" xmlns:oryx="http://oryx-editor.org" id="_B195415B-8151-4E8B-8D0E-3062AD5ABD22" width="506.578125" height="260.90623474121094" xmlns:xlink="http://www.w3.org/1999/xlink" xmlns:svg="http://www.w3.org/2000/svg"><defs><marker id="_DFEA1B4F-4411-4946-B4C2-BEC22ADEEDF8start" refX="1" refY="5" markerUnits="userSpaceOnUse" markerWidth="17" markerHeight="11" orient="auto" fill="#000000" stroke="#000000"> 	  		<path id="_DFEA1B4F-4411-4946-B4C2-BEC22ADEEDF8conditional" d="M 0 5 L 8 0 L 16 5 L 8 10 L 0 5" fill="white" stroke="#000000" stroke-width="1" display="none"/> 			<path id="_DFEA1B4F-4411-4946-B4C2-BEC22ADEEDF8default" d="M 5 0 L 11 10" fill="white" stroke="#000000" stroke-width="1" display="none"/> 	  	</marker><marker id="_DFEA1B4F-4411-4946-B4C2-BEC22ADEEDF8end" refX="15" refY="6" markerUnits="userSpaceOnUse" markerWidth="15" markerHeight="12" orient="auto" fill="#000000" stroke="#000000"> 	  		<path id="_DFEA1B4F-4411-4946-B4C2-BEC22ADEEDF8frame2" d="M 0 1 L 15 6 L 0 11z" fill="#000000" stroke="#000000" stroke-linejoin="round" stroke-width="2"/> 	  	</marker><marker id="_4AE2154D-25B3-4F5E-B01F-6C41CE080E08start" refX="1" refY="5" markerUnits="userSpaceOnUse" markerWidth="17" markerHeight="11" orient="auto" fill="#000000" stroke="#000000"> 	  		<path id="_4AE2154D-25B3-4F5E-B01F-6C41CE080E08conditional" d="M 0 5 L 8 0 L 16 5 L 8 10 L 0 5" fill="white" stroke="#000000" stroke-width="1" display="none"/> 			<path id="_4AE2154D-25B3-4F5E-B01F-6C41CE080E08default" d="M 5 0 L 11 10" fill="white" stroke="#000000" stroke-width="1" display="none"/> 	  	</marker><marker id="_4AE2154D-25B3-4F5E-B01F-6C41CE080E08end" refX="15" refY="6" markerUnits="userSpaceOnUse" markerWidth="15" markerHeight="12" orient="auto" fill="#000000" stroke="#000000"> 	  		<path id="_4AE2154D-25B3-4F5E-B01F-6C41CE080E08frame2" d="M 0 1 L 15 6 L 0 11z" fill="#000000" stroke="#000000" stroke-linejoin="round" stroke-width="2"/> 	  	</marker></defs><g stroke="none" font-family="Verdana, sans-serif" font-size-adjust="none" font-style="normal" font-variant="normal" font-weight="normal" line-heigth="normal" font-size="12"><g class="stencils" transform="translate(15, 15.90625)"><g class="me"/><g class="children"><g id="_174E65AF-15FE-4183-A7B6-88D3C984F16C" bpmn2nodeid="processStartEvent"><g class="stencils" transform="translate(60, 165)"><g class="me"><g pointer-events="fill" id="_174E65AF-15FE-4183-A7B6-88D3C984F16C">        <defs id="_174E65AF-15FE-4183-A7B6-88D3C984F16C__174E65AF-15FE-4183-A7B6-88D3C984F16C_5"> 		<radialGradient id="_174E65AF-15FE-4183-A7B6-88D3C984F16Cbackground" cx="10%" cy="10%" r="100%" fx="10%" fy="10%"> 			<stop offset="0%" stop-color="#ffffff" stop-opacity="1" id="_174E65AF-15FE-4183-A7B6-88D3C984F16C__174E65AF-15FE-4183-A7B6-88D3C984F16C_6"/> 			<stop id="_174E65AF-15FE-4183-A7B6-88D3C984F16Cfill_el" offset="100%" stop-color="#9acd32" stop-opacity="1"/> 		</radialGradient> 	</defs> 	     <circle id="_174E65AF-15FE-4183-A7B6-88D3C984F16Cbg_frame" cx="15" cy="15" r="15" stroke="#000000" fill="url(#_174E65AF-15FE-4183-A7B6-88D3C984F16Cbackground) white" stroke-width="1" style="stroke-dasharray: 5.5, 3"/>      <circle id="_174E65AF-15FE-4183-A7B6-88D3C984F16Cframe" cx="15" cy="15" r="15" stroke="#000000" fill="none" stroke-width="1" display="inherit"/>  	<text font-size="11" id="_174E65AF-15FE-4183-A7B6-88D3C984F16Ctext_name" x="15" y="32" oryx:align="top center" stroke="black" stroke-width="0pt" letter-spacing="-0.01px" fill="#000000" text-anchor="middle" transform="rotate(0 15 32)" visibility="inherit" oryx:fontSize="11"/>   </g></g><g class="children" style="overflow:hidden"/><g class="edge"/></g><g class="controls"><g class="dockers"/><g class="magnets" transform="translate(60, 165)"><g pointer-events="all" display="none" transform="translate(7, 7)"><circle cx="8" cy="8" r="4" stroke="none" fill="red" fill-opacity="0.3"/></g></g></g></g><g id="_C5A9BC36-1B1D-42A4-85A8-B85F0C75FACE" bpmn2nodeid="_258F978A-D734-41ED-AC60-77AECB522A26"><g class="stencils" transform="translate(142, 142)"><g class="me"><g pointer-events="fill" oryx:minimumSize="50 40" id="_C5A9BC36-1B1D-42A4-85A8-B85F0C75FACE">   	<defs id="_C5A9BC36-1B1D-42A4-85A8-B85F0C75FACE__C5A9BC36-1B1D-42A4-85A8-B85F0C75FACE_17"> 		<radialGradient id="_C5A9BC36-1B1D-42A4-85A8-B85F0C75FACEbackground" cx="10%" cy="10%" r="100%" fx="10%" fy="10%"> 			<stop offset="0%" stop-color="#ffffff" stop-opacity="1" id="_C5A9BC36-1B1D-42A4-85A8-B85F0C75FACE__C5A9BC36-1B1D-42A4-85A8-B85F0C75FACE_18"/> 			<stop id="_C5A9BC36-1B1D-42A4-85A8-B85F0C75FACEfill_el" offset="100%" stop-color="#fafad2" stop-opacity="1"/> 		</radialGradient> 		<radialGradient id="_C5A9BC36-1B1D-42A4-85A8-B85F0C75FACEborderbackground" cx="10%" cy="10%" r="100%" fx="10%" fy="10%"> 			<stop offset="0%" stop-color="#ffffff" stop-opacity="1" id="_C5A9BC36-1B1D-42A4-85A8-B85F0C75FACE__C5A9BC36-1B1D-42A4-85A8-B85F0C75FACE_19"/> 			<stop id="_C5A9BC36-1B1D-42A4-85A8-B85F0C75FACEfill_border" offset="100%" stop-color="#000000" stop-opacity="1" stroke="#000000"/> 		</radialGradient> 	</defs> 	 	<rect id="_C5A9BC36-1B1D-42A4-85A8-B85F0C75FACEtext_frame" oryx:anchors="bottom top right left" x="1" y="1" width="147" height="77" rx="10" ry="10" stroke="none" stroke-width="0" fill="none"/> 	<rect id="_C5A9BC36-1B1D-42A4-85A8-B85F0C75FACEbg_frame" oryx:resize="vertical horizontal" x="0" y="0" width="153" height="78" rx="10" ry="10" stroke="#000000" stroke-width="1" fill="url(#_C5A9BC36-1B1D-42A4-85A8-B85F0C75FACEbackground) #ffffcc"/> 		<text font-size="12" id="_C5A9BC36-1B1D-42A4-85A8-B85F0C75FACEtext_name" x="76.5" y="39" oryx:align="middle center" oryx:fittoelem="text_frame" stroke="black" text-anchor="middle" stroke-width="0pt" letter-spacing="-0.01px" fill="#000000" transform="rotate(0 76.5 39)" visibility="inherit" oryx:fontSize="12"><tspan x="76.5" y="39" dy="5" id="ext-gen1310">ExceptionsCatcher</tspan></text>     <g id="_C5A9BC36-1B1D-42A4-85A8-B85F0C75FACEmanualTask" transform="scale(0.7,0.7) translate(8,8)" display="none">     	<path oryx:anchors="top left" id="_C5A9BC36-1B1D-42A4-85A8-B85F0C75FACEframe" style="opacity:1;fill:none;fill-opacity:1;stroke-width:1" d="M0.5,3.751l4.083-3.25c0,0,11.166,0.083,12.083,0.083s-2.417,2.917-1.5,2.917     s11.667,0,12.584,0c1.166,1.708-0.168,3.167-0.834,3.667s0.875,1.917-1,4.417c-0.75,0.25,0.75,1.875-1.333,3.333     c-1.167,0.583,0.583,1.542-1.25,2.833c-1.167,0-20.833,0.083-20.833,0.083l-2-1.333V3.751z" stroke="#000000"/> 		<path id="_C5A9BC36-1B1D-42A4-85A8-B85F0C75FACEframe2" oryx:anchors="top left" style="opacity:1;fill:none;stroke-width:2" d="M 13.5 7 L 27 7" stroke="#000000"/> 		<path id="_C5A9BC36-1B1D-42A4-85A8-B85F0C75FACEframe3" oryx:anchors="top left" style="opacity:1;fill:none;stroke-width:2" d="M 13.5 11 L 26 11" stroke="#000000"/> 		<path id="_C5A9BC36-1B1D-42A4-85A8-B85F0C75FACEframe4" oryx:anchors="top left" style="opacity:1;fill:none;stroke-width:1.5" d="M 14 14.5 L 25 14.5" stroke="#000000"/> 		<path id="_C5A9BC36-1B1D-42A4-85A8-B85F0C75FACEframe5" oryx:anchors="top left" style="opacity:1;fill:none;stroke-width:1.5" d="M 8.2 3.1 L 15 3.1" stroke="#000000"/> 	</g> 	 	<g id="_C5A9BC36-1B1D-42A4-85A8-B85F0C75FACEbusinessRuleTask" transform="scale(0.7,0.7) translate(8,8)" display="none"> 		<rect id="_C5A9BC36-1B1D-42A4-85A8-B85F0C75FACEframe6" oryx:anchors="top left" x="0" y="0" width="22" height="4" style="opacity:1;fill:#B3B1B3;fill-opacity:1;" stroke="#000000"/> 		<rect id="_C5A9BC36-1B1D-42A4-85A8-B85F0C75FACEframe7" oryx:anchors="top left" x="0" y="4" style="opacity:1;fill:none;" width="22" height="12" stroke="#000000"/> 		<path id="_C5A9BC36-1B1D-42A4-85A8-B85F0C75FACEframe8" oryx:anchors="top left" style="opacity:1;fill:none;" d="M 0 10 L 22 10" stroke="#000000"/> 		<path id="_C5A9BC36-1B1D-42A4-85A8-B85F0C75FACEframe9" oryx:anchors="top left" style="opacity:1; fill:none;" d="M 7 4 L 7 16" stroke="#000000"/> 	</g> 	 	<g id="_C5A9BC36-1B1D-42A4-85A8-B85F0C75FACEscriptTask" transform="scale(0.7,0.7) translate(8,8)" display="none"> 		<path oryx:anchors="top left" id="_C5A9BC36-1B1D-42A4-85A8-B85F0C75FACEframe10" style="opacity:1;fill:none;" stroke="#000000" d="M6.402,0.5h14.5c0,0-5.833,2.833-5.833,5.583s4.417,6,4.417,9.167    s-4.167,5.083-4.167,5.083H0.235c0,0,5-2.667,5-5s-4.583-6.75-4.583-9.25S6.402,0.5,6.402,0.5z"/> 		<path oryx:anchors="top left" id="_C5A9BC36-1B1D-42A4-85A8-B85F0C75FACEframe11" style="opacity:1;fill:none;stroke-width:1.5" d="M 3.5 4.5 L 13.5 4.5" stroke="#000000"/> 		<path oryx:anchors="top left" id="_C5A9BC36-1B1D-42A4-85A8-B85F0C75FACEframe12" style="opacity:1;fill:none;stroke-width:1.5" d="M 3.8 8.5 L 13.8 8.5" stroke="#000000"/> 		<path oryx:anchors="top left" id="_C5A9BC36-1B1D-42A4-85A8-B85F0C75FACEframe13" style="opacity:1;fill:none;stroke-width:1.5" d="M 6.3 12.5 L 16.3 12.5" stroke="#000000"/> 		<path oryx:anchors="top left" id="_C5A9BC36-1B1D-42A4-85A8-B85F0C75FACEframe14" style="opacity:1;fill:none;stroke-width:1.5" d="M 6.5 16.5 L 16.5 16.5" stroke="#000000"/> 	</g> 	 	<g id="_C5A9BC36-1B1D-42A4-85A8-B85F0C75FACEuserTask" transform="scale(0.7,0.7) translate(8,8)" display="inherit"> 		<path id="_C5A9BC36-1B1D-42A4-85A8-B85F0C75FACEframe15" oryx:anchors="top left" style="opacity:1;fill:#F4F6F7" stroke="#000000" d="M0.585,24.167h24.083v-7.833c0,0-2.333-3.917-7.083-5.167h-9.25    c-4.417,1.333-7.833,5.75-7.833,5.75L0.585,24.167z"/> 		<path id="_C5A9BC36-1B1D-42A4-85A8-B85F0C75FACEframe16" oryx:anchors="top left" style="opacity:1;fill:none" d="M 6 20 L 6 24" stroke="#000000"/> 		<path id="_C5A9BC36-1B1D-42A4-85A8-B85F0C75FACEframe17" oryx:anchors="top left" style="opacity:1;fill:none" d="M 20 20 L 20 24" stroke="#000000"/> 		<circle id="_C5A9BC36-1B1D-42A4-85A8-B85F0C75FACEframe18" oryx:anchors="top left" fill="black" cx="13.002" cy="5.916" r="5.417" stroke="#000000"/> 		<path id="_C5A9BC36-1B1D-42A4-85A8-B85F0C75FACEframe19" oryx:anchors="top left" style="opacity:1;fill:#F0EFF0;" stroke="#000000" d="M8.043,7.083c0,0,2.814-2.426,5.376-1.807s4.624-0.693,4.624-0.693    c0.25,1.688,0.042,3.75-1.458,5.584c0,0,1.083,0.75,1.083,1.5s0.125,1.875-1,3s-5.5,1.25-6.75,0S8.668,12.834,8.668,12    s0.583-1.25,1.25-1.917C8.835,9.5,7.419,7.708,8.043,7.083z"/> 	</g> 	 	<g id="_C5A9BC36-1B1D-42A4-85A8-B85F0C75FACEserviceTask" transform="scale(0.7,0.7) translate(8,8)" display="none"> 		<polygon oryx:anchors="top left" id="_C5A9BC36-1B1D-42A4-85A8-B85F0C75FACEframe20" style="opacity:1;fill:#ffffff" stroke="#000000" points="15.392,5.064 17.954,2.502 20.347,4.895 17.786,7.455     18.729,9.732 22.353,9.732 22.353,13.115 18.731,13.115 17.788,15.392 20.351,17.955 17.958,20.347 15.397,17.786 13.12,18.729     13.12,22.353 9.737,22.353 9.737,18.731 7.46,17.788 4.897,20.35 2.506,17.958 5.066,15.397 4.124,13.12 0.5,13.12 0.5,9.737     4.121,9.737 5.065,7.461 2.503,4.898 4.895,2.506 7.455,5.066 9.732,4.125 9.732,0.5 13.116,0.5 13.116,4.121 "/> 		<circle oryx:anchors="top left" id="_C5A9BC36-1B1D-42A4-85A8-B85F0C75FACEframe21" style="opacity:1;fill:none" stroke="#000000" cx="11.427" cy="11.426" r="3.714"/> 		<polygon oryx:anchors="top left" id="_C5A9BC36-1B1D-42A4-85A8-B85F0C75FACEframe22" style="opacity:1;fill:#ffffff" stroke="#000000" points="21.392,11.064 23.954,8.502 26.347,10.895 23.786,13.455     24.729,15.732 28.353,15.732 28.353,19.115 24.731,19.115 23.788,21.392 26.351,23.955 23.958,26.347 21.397,23.786 19.12,24.729     19.12,28.353 15.737,28.353 15.737,24.731 13.46,23.788 10.897,26.35 8.506,23.958 11.066,21.397 10.124,19.12 6.5,19.12     6.5,15.737 10.121,15.737 11.065,13.461 8.503,10.898 10.895,8.506 13.455,11.066 15.732,10.125 15.732,6.5 19.116,6.5     19.116,10.121 "/> 		<circle oryx:anchors="top left" id="_C5A9BC36-1B1D-42A4-85A8-B85F0C75FACEframe23" style="opacity:1;fill:none;" stroke="#000000" cx="17.427" cy="17.426" r="3.714"/> 	</g> 	 	<g id="_C5A9BC36-1B1D-42A4-85A8-B85F0C75FACEsendTask" display="none"> 		<path id="_C5A9BC36-1B1D-42A4-85A8-B85F0C75FACEstframe24" oryx:anchors="left top" stroke="#FFFFFF" fill="black" stroke-width="1" d="M8,11 L8,21 L24,21 L24,11 L16,17z"/> 		<path id="_C5A9BC36-1B1D-42A4-85A8-B85F0C75FACEstframe25" oryx:anchors="left top" stroke="#FFFFFF" fill="black" stroke-width="1" d="M7,10 L16,17 L25 10z"/> 	</g> 	 	<g id="_C5A9BC36-1B1D-42A4-85A8-B85F0C75FACEreceiveTask" display="none"> 		<path id="_C5A9BC36-1B1D-42A4-85A8-B85F0C75FACEframe26" oryx:anchors="left top" stroke="#000000" fill="none" stroke-width="1" d="M8,11 L8,21 L24,21 L24,11z M8,11 L16,17 L24,11"/> 	</g> 	 	<g id="_C5A9BC36-1B1D-42A4-85A8-B85F0C75FACEnone" display="inherit"/>  	<g id="_C5A9BC36-1B1D-42A4-85A8-B85F0C75FACEsequential" display="none">         <path oryx:anchors="bottom" fill="none" stroke="#000000" stroke-width="2" d=" M73.03 74  h10  M73.03 70  h10  M73.03 66  h10 " id="_C5A9BC36-1B1D-42A4-85A8-B85F0C75FACE__C5A9BC36-1B1D-42A4-85A8-B85F0C75FACE_20"/>     </g>   </g></g><g class="children" style="overflow:hidden"/><g class="edge"/></g><g class="controls"><g class="dockers"/><g class="magnets" transform="translate(142, 142)"><g pointer-events="all" display="none" transform="translate(-7, 11.5)"><circle cx="8" cy="8" r="4" stroke="none" fill="red" fill-opacity="0.3"/></g><g pointer-events="all" display="none" transform="translate(-7, 31)"><circle cx="8" cy="8" r="4" stroke="none" fill="red" fill-opacity="0.3"/></g><g pointer-events="all" display="none" transform="translate(-7, 50.5)"><circle cx="8" cy="8" r="4" stroke="none" fill="red" fill-opacity="0.3"/></g><g pointer-events="all" display="none" transform="translate(30.25, 69)"><circle cx="8" cy="8" r="4" stroke="none" fill="red" fill-opacity="0.3"/></g><g pointer-events="all" display="none" transform="translate(68.5, 69)"><circle cx="8" cy="8" r="4" stroke="none" fill="red" fill-opacity="0.3"/></g><g pointer-events="all" display="none" transform="translate(106.75, 69)"><circle cx="8" cy="8" r="4" stroke="none" fill="red" fill-opacity="0.3"/></g><g pointer-events="all" display="none" transform="translate(144, 11.5)"><circle cx="8" cy="8" r="4" stroke="none" fill="red" fill-opacity="0.3"/></g><g pointer-events="all" display="none" transform="translate(144, 31)"><circle cx="8" cy="8" r="4" stroke="none" fill="red" fill-opacity="0.3"/></g><g pointer-events="all" display="none" transform="translate(144, 50.5)"><circle cx="8" cy="8" r="4" stroke="none" fill="red" fill-opacity="0.3"/></g><g pointer-events="all" display="none" transform="translate(30.25, -7)"><circle cx="8" cy="8" r="4" stroke="none" fill="red" fill-opacity="0.3"/></g><g pointer-events="all" display="none" transform="translate(68.5, -7)"><circle cx="8" cy="8" r="4" stroke="none" fill="red" fill-opacity="0.3"/></g><g pointer-events="all" display="none" transform="translate(106.75, -7)"><circle cx="8" cy="8" r="4" stroke="none" fill="red" fill-opacity="0.3"/></g><g pointer-events="all" display="none" transform="translate(68.5, 31)"><circle cx="8" cy="8" r="4" stroke="none" fill="red" fill-opacity="0.3"/></g></g></g></g><g id="_64FF1D37-93C0-4F66-B94D-F2E55847CDB0" bpmn2nodeid="_E27D8977-C254-4616-B149-F900E4DD9C65"><g class="stencils" transform="translate(355, 166)"><g class="me"><g pointer-events="fill" id="_64FF1D37-93C0-4F66-B94D-F2E55847CDB0">      <defs id="_64FF1D37-93C0-4F66-B94D-F2E55847CDB0__64FF1D37-93C0-4F66-B94D-F2E55847CDB0_5"> 		<radialGradient id="_64FF1D37-93C0-4F66-B94D-F2E55847CDB0background" cx="10%" cy="10%" r="100%" fx="10%" fy="10%"> 			<stop offset="0%" stop-color="#ffffff" stop-opacity="1" id="_64FF1D37-93C0-4F66-B94D-F2E55847CDB0__64FF1D37-93C0-4F66-B94D-F2E55847CDB0_6"/> 			<stop id="_64FF1D37-93C0-4F66-B94D-F2E55847CDB0fill_el" offset="100%" stop-color="#ff6347" stop-opacity="1"/> 		</radialGradient> 	</defs> 	     <circle id="_64FF1D37-93C0-4F66-B94D-F2E55847CDB0bg_frame" cx="14" cy="14" r="14" stroke="#000000" fill="url(#_64FF1D37-93C0-4F66-B94D-F2E55847CDB0background) white" stroke-width="3"/> 	<text font-size="11" id="_64FF1D37-93C0-4F66-B94D-F2E55847CDB0text_name" x="14" y="30" oryx:align="top center" stroke="black" stroke-width="0pt" letter-spacing="-0.01px" fill="#000000" text-anchor="middle" transform="rotate(0 14 30)" visibility="inherit" oryx:fontSize="11"/>   </g></g><g class="children" style="overflow:hidden"/><g class="edge"/></g><g class="controls"><g class="dockers"/><g class="magnets" transform="translate(355, 166)"><g pointer-events="all" display="none" transform="translate(6, 6)"><circle cx="8" cy="8" r="4" stroke="none" fill="red" fill-opacity="0.3"/></g></g></g></g></g><g class="edge"><g id="_DFEA1B4F-4411-4946-B4C2-BEC22ADEEDF8" bpmn2nodeid="_852E3B5E-8FBE-497F-AAAD-A573AA96426E"><g class="stencils"><g class="me"><g pointer-events="painted" bpmn2nodeid="_D953930C-60AC-4C61-9CAC-4169B10CF361"><path id="_DFEA1B4F-4411-4946-B4C2-BEC22ADEEDF8_1" d="M90.57419446990482 180.1085309719157L141.26564928009518 180.4617815280843 " stroke="#000000" fill="none" stroke-width="2" stroke-linecap="round" stroke-linejoin="round" marker-start="url(#_DFEA1B4F-4411-4946-B4C2-BEC22ADEEDF8start)" marker-end="url(#_DFEA1B4F-4411-4946-B4C2-BEC22ADEEDF8end)"/></g><text id="_DFEA1B4F-4411-4946-B4C2-BEC22ADEEDF8text_name" font-size="12" x="104.57419446990482" y="166.1085309719157" oryx:edgePosition="startTop" stroke-width="0pt" letter-spacing="-0.01px" fill="#000000" text-anchor="start" transform="rotate(0.3992672618467168 90.57419446990482 180.1085309719157)" visibility="inherit" oryx:fontSize="12"/></g><g class="children" style="overflow:hidden"/><g class="edge"/></g><g class="controls"><g class="dockers"/><g class="magnets"/></g></g><g id="_4AE2154D-25B3-4F5E-B01F-6C41CE080E08" bpmn2nodeid="_62EB5996-02F0-45A3-8094-1121C8819506"><g class="stencils"><g class="me"><g pointer-events="painted" bpmn2nodeid="_30CE163C-70F0-42A1-9B36-B6F03C070C48"><path id="_4AE2154D-25B3-4F5E-B01F-6C41CE080E08_1" d="M295.9257591759194 180.4855431283992L354.4785376990806 180.0964881216008 " stroke="#000000" fill="none" stroke-width="2" stroke-linecap="round" stroke-linejoin="round" marker-start="url(#_4AE2154D-25B3-4F5E-B01F-6C41CE080E08start)" marker-end="url(#_4AE2154D-25B3-4F5E-B01F-6C41CE080E08end)"/></g><text id="_4AE2154D-25B3-4F5E-B01F-6C41CE080E08text_name" font-size="12" x="309.9257591759194" y="166.4855431283992" oryx:edgePosition="startTop" stroke-width="0pt" letter-spacing="-0.01px" fill="#000000" text-anchor="start" transform="rotate(359.61930274857326 295.9257591759194 180.4855431283992)" visibility="inherit" oryx:fontSize="12"/></g><g class="children" style="overflow:hidden"/><g class="edge"/></g><g class="controls"><g class="dockers"/><g class="magnets"/></g></g></g><text id="_7082D7A1-B8F7-4EAC-8621-37E73E9637D1" style="stroke-width:1;fill:rgb(177,194,214);font-family:arial;font-weight:bold" font-size="12" onclick="ORYX.Plugins.CanvasTitle.openTextualAnalysis()" onmouseover="ORYX.Plugins.CanvasTitle.addToolTip('_7082D7A1-B8F7-4EAC-8621-37E73E9637D1')" transform="translate(10, 20)">ExceptionsCatcher v.1.0 (com.redhat.management.approval.ExceptionsCatcher)</text></g></g></svg>