<svg xmlns="http://www.w3.org/2000/svg" xmlns:oryx="http://oryx-editor.org" id="_AE491689-CD40-416E-B623-320E42E57289" width="487.890625" height="265" xmlns:xlink="http://www.w3.org/1999/xlink" xmlns:svg="http://www.w3.org/2000/svg"><defs><marker id="_5A09D8FD-43DD-4634-B7FD-20BAF1C67D25start" refX="1" refY="5" markerUnits="userSpaceOnUse" markerWidth="17" markerHeight="11" orient="auto" fill="#000000" stroke="#000000"> 	  		<path id="_5A09D8FD-43DD-4634-B7FD-20BAF1C67D25conditional" d="M 0 5 L 8 0 L 16 5 L 8 10 L 0 5" fill="white" stroke="#000000" stroke-width="1" display="none"/> 			<path id="_5A09D8FD-43DD-4634-B7FD-20BAF1C67D25default" d="M 5 0 L 11 10" fill="white" stroke="#000000" stroke-width="1" display="none"/> 	  	</marker><marker id="_5A09D8FD-43DD-4634-B7FD-20BAF1C67D25end" refX="15" refY="6" markerUnits="userSpaceOnUse" markerWidth="15" markerHeight="12" orient="auto" fill="#000000" stroke="#000000"> 	  		<path id="_5A09D8FD-43DD-4634-B7FD-20BAF1C67D25frame2" d="M 0 1 L 15 6 L 0 11z" fill="#000000" stroke="#000000" stroke-linejoin="round" stroke-width="2"/> 	  	</marker><marker id="_AA0CE019-1B5E-44D7-B877-AD45F6C57752start" refX="1" refY="5" markerUnits="userSpaceOnUse" markerWidth="17" markerHeight="11" orient="auto" fill="#000000" stroke="#000000"> 	  		<path id="_AA0CE019-1B5E-44D7-B877-AD45F6C57752conditional" d="M 0 5 L 8 0 L 16 5 L 8 10 L 0 5" fill="white" stroke="#000000" stroke-width="1" display="none"/> 			<path id="_AA0CE019-1B5E-44D7-B877-AD45F6C57752default" d="M 5 0 L 11 10" fill="white" stroke="#000000" stroke-width="1" display="none"/> 	  	</marker><marker id="_AA0CE019-1B5E-44D7-B877-AD45F6C57752end" refX="15" refY="6" markerUnits="userSpaceOnUse" markerWidth="15" markerHeight="12" orient="auto" fill="#000000" stroke="#000000"> 	  		<path id="_AA0CE019-1B5E-44D7-B877-AD45F6C57752frame2" d="M 0 1 L 15 6 L 0 11z" fill="#000000" stroke="#000000" stroke-linejoin="round" stroke-width="2"/> 	  	</marker></defs><g stroke="none" font-family="Verdana, sans-serif" font-size-adjust="none" font-style="normal" font-variant="normal" font-weight="normal" line-heigth="normal" font-size="12"><g class="stencils" transform="translate(15, 16)"><g class="me"/><g class="children"><g id="_48C914BE-C555-4665-B324-2119D5C04931" bpmn2nodeid="processStartEvent"><g class="stencils" transform="translate(120, 165)"><g class="me"><g pointer-events="fill" id="_48C914BE-C555-4665-B324-2119D5C04931">        <defs id="_48C914BE-C555-4665-B324-2119D5C04931__48C914BE-C555-4665-B324-2119D5C04931_5"> 		<radialGradient id="_48C914BE-C555-4665-B324-2119D5C04931background" cx="10%" cy="10%" r="100%" fx="10%" fy="10%"> 			<stop offset="0%" stop-color="#ffffff" stop-opacity="1" id="_48C914BE-C555-4665-B324-2119D5C04931__48C914BE-C555-4665-B324-2119D5C04931_6"/> 			<stop id="_48C914BE-C555-4665-B324-2119D5C04931fill_el" offset="100%" stop-color="#9acd32" stop-opacity="1"/> 		</radialGradient> 	</defs> 	     <circle id="_48C914BE-C555-4665-B324-2119D5C04931bg_frame" cx="15" cy="15" r="15" stroke="#000000" fill="url(#_48C914BE-C555-4665-B324-2119D5C04931background) white" stroke-width="1" style="stroke-dasharray: 5.5, 3"/>      <circle id="_48C914BE-C555-4665-B324-2119D5C04931frame" cx="15" cy="15" r="15" stroke="#000000" fill="none" stroke-width="1" display="inherit"/>  	<text font-size="11" id="_48C914BE-C555-4665-B324-2119D5C04931text_name" x="15" y="32" oryx:align="top center" stroke="black" stroke-width="0pt" letter-spacing="-0.01px" fill="#000000" text-anchor="middle" transform="rotate(0 15 32)" visibility="inherit" oryx:fontSize="11"/>   </g></g><g class="children" style="overflow:hidden"/><g class="edge"/></g><g class="controls"><g class="dockers"/><g class="magnets" transform="translate(120, 165)"><g pointer-events="all" display="none" transform="translate(7, 7)"><circle cx="8" cy="8" r="4" stroke="none" fill="red" fill-opacity="0.3"/></g></g></g></g><g id="_D36A16DE-627A-4A7F-A2B4-A93972916849" bpmn2nodeid="_71A80FD2-A83C-4D30-9C53-0CD4D560FE34"><g class="stencils" transform="translate(195, 140)"><g class="me"><g pointer-events="fill" oryx:minimumSize="50 40" id="_D36A16DE-627A-4A7F-A2B4-A93972916849">   	<defs id="_D36A16DE-627A-4A7F-A2B4-A93972916849__D36A16DE-627A-4A7F-A2B4-A93972916849_17"> 		<radialGradient id="_D36A16DE-627A-4A7F-A2B4-A93972916849background" cx="10%" cy="10%" r="100%" fx="10%" fy="10%"> 			<stop offset="0%" stop-color="#ffffff" stop-opacity="1" id="_D36A16DE-627A-4A7F-A2B4-A93972916849__D36A16DE-627A-4A7F-A2B4-A93972916849_18"/> 			<stop id="_D36A16DE-627A-4A7F-A2B4-A93972916849fill_el" offset="100%" stop-color="#fafad2" stop-opacity="1"/> 		</radialGradient> 		<radialGradient id="_D36A16DE-627A-4A7F-A2B4-A93972916849borderbackground" cx="10%" cy="10%" r="100%" fx="10%" fy="10%"> 			<stop offset="0%" stop-color="#ffffff" stop-opacity="1" id="_D36A16DE-627A-4A7F-A2B4-A93972916849__D36A16DE-627A-4A7F-A2B4-A93972916849_19"/> 			<stop id="_D36A16DE-627A-4A7F-A2B4-A93972916849fill_border" offset="100%" stop-color="#000000" stop-opacity="1" stroke="#000000"/> 		</radialGradient> 	</defs> 	 	<rect id="_D36A16DE-627A-4A7F-A2B4-A93972916849text_frame" oryx:anchors="bottom top right left" x="1" y="1" width="94" height="79" rx="10" ry="10" stroke="none" stroke-width="0" fill="none"/> 	<rect id="_D36A16DE-627A-4A7F-A2B4-A93972916849bg_frame" oryx:resize="vertical horizontal" x="0" y="0" width="100" height="80" rx="10" ry="10" stroke="#000000" stroke-width="1" fill="url(#_D36A16DE-627A-4A7F-A2B4-A93972916849background) #ffffcc"/> 		<text font-size="12" id="_D36A16DE-627A-4A7F-A2B4-A93972916849text_name" x="50" y="40" oryx:align="middle center" oryx:fittoelem="text_frame" stroke="black" text-anchor="middle" stroke-width="0pt" letter-spacing="-0.01px" fill="#000000" transform="rotate(0 50 40)" visibility="inherit" oryx:fontSize="12"/>     <g id="_D36A16DE-627A-4A7F-A2B4-A93972916849manualTask" transform="scale(0.7,0.7) translate(8,8)" display="none">     	<path oryx:anchors="top left" id="_D36A16DE-627A-4A7F-A2B4-A93972916849frame" style="opacity:1;fill:none;fill-opacity:1;stroke-width:1" d="M0.5,3.751l4.083-3.25c0,0,11.166,0.083,12.083,0.083s-2.417,2.917-1.5,2.917     s11.667,0,12.584,0c1.166,1.708-0.168,3.167-0.834,3.667s0.875,1.917-1,4.417c-0.75,0.25,0.75,1.875-1.333,3.333     c-1.167,0.583,0.583,1.542-1.25,2.833c-1.167,0-20.833,0.083-20.833,0.083l-2-1.333V3.751z" stroke="#000000"/> 		<path id="_D36A16DE-627A-4A7F-A2B4-A93972916849frame2" oryx:anchors="top left" style="opacity:1;fill:none;stroke-width:2" d="M 13.5 7 L 27 7" stroke="#000000"/> 		<path id="_D36A16DE-627A-4A7F-A2B4-A93972916849frame3" oryx:anchors="top left" style="opacity:1;fill:none;stroke-width:2" d="M 13.5 11 L 26 11" stroke="#000000"/> 		<path id="_D36A16DE-627A-4A7F-A2B4-A93972916849frame4" oryx:anchors="top left" style="opacity:1;fill:none;stroke-width:1.5" d="M 14 14.5 L 25 14.5" stroke="#000000"/> 		<path id="_D36A16DE-627A-4A7F-A2B4-A93972916849frame5" oryx:anchors="top left" style="opacity:1;fill:none;stroke-width:1.5" d="M 8.2 3.1 L 15 3.1" stroke="#000000"/> 	</g> 	 	<g id="_D36A16DE-627A-4A7F-A2B4-A93972916849businessRuleTask" transform="scale(0.7,0.7) translate(8,8)" display="none"> 		<rect id="_D36A16DE-627A-4A7F-A2B4-A93972916849frame6" oryx:anchors="top left" x="0" y="0" width="22" height="4" style="opacity:1;fill:#B3B1B3;fill-opacity:1;" stroke="#000000"/> 		<rect id="_D36A16DE-627A-4A7F-A2B4-A93972916849frame7" oryx:anchors="top left" x="0" y="4" style="opacity:1;fill:none;" width="22" height="12" stroke="#000000"/> 		<path id="_D36A16DE-627A-4A7F-A2B4-A93972916849frame8" oryx:anchors="top left" style="opacity:1;fill:none;" d="M 0 10 L 22 10" stroke="#000000"/> 		<path id="_D36A16DE-627A-4A7F-A2B4-A93972916849frame9" oryx:anchors="top left" style="opacity:1; fill:none;" d="M 7 4 L 7 16" stroke="#000000"/> 	</g> 	 	<g id="_D36A16DE-627A-4A7F-A2B4-A93972916849scriptTask" transform="scale(0.7,0.7) translate(8,8)" display="inherit"> 		<path oryx:anchors="top left" id="_D36A16DE-627A-4A7F-A2B4-A93972916849frame10" style="opacity:1;fill:none;" stroke="#000000" d="M6.402,0.5h14.5c0,0-5.833,2.833-5.833,5.583s4.417,6,4.417,9.167    s-4.167,5.083-4.167,5.083H0.235c0,0,5-2.667,5-5s-4.583-6.75-4.583-9.25S6.402,0.5,6.402,0.5z"/> 		<path oryx:anchors="top left" id="_D36A16DE-627A-4A7F-A2B4-A93972916849frame11" style="opacity:1;fill:none;stroke-width:1.5" d="M 3.5 4.5 L 13.5 4.5" stroke="#000000"/> 		<path oryx:anchors="top left" id="_D36A16DE-627A-4A7F-A2B4-A93972916849frame12" style="opacity:1;fill:none;stroke-width:1.5" d="M 3.8 8.5 L 13.8 8.5" stroke="#000000"/> 		<path oryx:anchors="top left" id="_D36A16DE-627A-4A7F-A2B4-A93972916849frame13" style="opacity:1;fill:none;stroke-width:1.5" d="M 6.3 12.5 L 16.3 12.5" stroke="#000000"/> 		<path oryx:anchors="top left" id="_D36A16DE-627A-4A7F-A2B4-A93972916849frame14" style="opacity:1;fill:none;stroke-width:1.5" d="M 6.5 16.5 L 16.5 16.5" stroke="#000000"/> 	</g> 	 	<g id="_D36A16DE-627A-4A7F-A2B4-A93972916849userTask" transform="scale(0.7,0.7) translate(8,8)" display="none"> 		<path id="_D36A16DE-627A-4A7F-A2B4-A93972916849frame15" oryx:anchors="top left" style="opacity:1;fill:#F4F6F7" stroke="#000000" d="M0.585,24.167h24.083v-7.833c0,0-2.333-3.917-7.083-5.167h-9.25    c-4.417,1.333-7.833,5.75-7.833,5.75L0.585,24.167z"/> 		<path id="_D36A16DE-627A-4A7F-A2B4-A93972916849frame16" oryx:anchors="top left" style="opacity:1;fill:none" d="M 6 20 L 6 24" stroke="#000000"/> 		<path id="_D36A16DE-627A-4A7F-A2B4-A93972916849frame17" oryx:anchors="top left" style="opacity:1;fill:none" d="M 20 20 L 20 24" stroke="#000000"/> 		<circle id="_D36A16DE-627A-4A7F-A2B4-A93972916849frame18" oryx:anchors="top left" fill="black" cx="13.002" cy="5.916" r="5.417" stroke="#000000"/> 		<path id="_D36A16DE-627A-4A7F-A2B4-A93972916849frame19" oryx:anchors="top left" style="opacity:1;fill:#F0EFF0;" stroke="#000000" d="M8.043,7.083c0,0,2.814-2.426,5.376-1.807s4.624-0.693,4.624-0.693    c0.25,1.688,0.042,3.75-1.458,5.584c0,0,1.083,0.75,1.083,1.5s0.125,1.875-1,3s-5.5,1.25-6.75,0S8.668,12.834,8.668,12    s0.583-1.25,1.25-1.917C8.835,9.5,7.419,7.708,8.043,7.083z"/> 	</g> 	 	<g id="_D36A16DE-627A-4A7F-A2B4-A93972916849serviceTask" transform="scale(0.7,0.7) translate(8,8)" display="none"> 		<polygon oryx:anchors="top left" id="_D36A16DE-627A-4A7F-A2B4-A93972916849frame20" style="opacity:1;fill:#ffffff" stroke="#000000" points="15.392,5.064 17.954,2.502 20.347,4.895 17.786,7.455     18.729,9.732 22.353,9.732 22.353,13.115 18.731,13.115 17.788,15.392 20.351,17.955 17.958,20.347 15.397,17.786 13.12,18.729     13.12,22.353 9.737,22.353 9.737,18.731 7.46,17.788 4.897,20.35 2.506,17.958 5.066,15.397 4.124,13.12 0.5,13.12 0.5,9.737     4.121,9.737 5.065,7.461 2.503,4.898 4.895,2.506 7.455,5.066 9.732,4.125 9.732,0.5 13.116,0.5 13.116,4.121 "/> 		<circle oryx:anchors="top left" id="_D36A16DE-627A-4A7F-A2B4-A93972916849frame21" style="opacity:1;fill:none" stroke="#000000" cx="11.427" cy="11.426" r="3.714"/> 		<polygon oryx:anchors="top left" id="_D36A16DE-627A-4A7F-A2B4-A93972916849frame22" style="opacity:1;fill:#ffffff" stroke="#000000" points="21.392,11.064 23.954,8.502 26.347,10.895 23.786,13.455     24.729,15.732 28.353,15.732 28.353,19.115 24.731,19.115 23.788,21.392 26.351,23.955 23.958,26.347 21.397,23.786 19.12,24.729     19.12,28.353 15.737,28.353 15.737,24.731 13.46,23.788 10.897,26.35 8.506,23.958 11.066,21.397 10.124,19.12 6.5,19.12     6.5,15.737 10.121,15.737 11.065,13.461 8.503,10.898 10.895,8.506 13.455,11.066 15.732,10.125 15.732,6.5 19.116,6.5     19.116,10.121 "/> 		<circle oryx:anchors="top left" id="_D36A16DE-627A-4A7F-A2B4-A93972916849frame23" style="opacity:1;fill:none;" stroke="#000000" cx="17.427" cy="17.426" r="3.714"/> 	</g> 	 	<g id="_D36A16DE-627A-4A7F-A2B4-A93972916849sendTask" display="none"> 		<path id="_D36A16DE-627A-4A7F-A2B4-A93972916849stframe24" oryx:anchors="left top" stroke="#FFFFFF" fill="black" stroke-width="1" d="M8,11 L8,21 L24,21 L24,11 L16,17z"/> 		<path id="_D36A16DE-627A-4A7F-A2B4-A93972916849stframe25" oryx:anchors="left top" stroke="#FFFFFF" fill="black" stroke-width="1" d="M7,10 L16,17 L25 10z"/> 	</g> 	 	<g id="_D36A16DE-627A-4A7F-A2B4-A93972916849receiveTask" display="none"> 		<path id="_D36A16DE-627A-4A7F-A2B4-A93972916849frame26" oryx:anchors="left top" stroke="#000000" fill="none" stroke-width="1" d="M8,11 L8,21 L24,21 L24,11z M8,11 L16,17 L24,11"/> 	</g> 	 	<g id="_D36A16DE-627A-4A7F-A2B4-A93972916849none" display="none"/>  	<g id="_D36A16DE-627A-4A7F-A2B4-A93972916849sequential" display="none">         <path oryx:anchors="bottom" fill="none" stroke="#000000" stroke-width="2" d="M46,76h10M46,72h10 M46,68h10" id="_D36A16DE-627A-4A7F-A2B4-A93972916849__D36A16DE-627A-4A7F-A2B4-A93972916849_20"/>     </g>   </g></g><g class="children" style="overflow:hidden"/><g class="edge"/></g><g class="controls"><g class="dockers"/><g class="magnets" transform="translate(195, 140)"><g pointer-events="all" display="none" transform="translate(-7, 12)"><circle cx="8" cy="8" r="4" stroke="none" fill="red" fill-opacity="0.3"/></g><g pointer-events="all" display="none" transform="translate(-7, 32)"><circle cx="8" cy="8" r="4" stroke="none" fill="red" fill-opacity="0.3"/></g><g pointer-events="all" display="none" transform="translate(-7, 52)"><circle cx="8" cy="8" r="4" stroke="none" fill="red" fill-opacity="0.3"/></g><g pointer-events="all" display="none" transform="translate(17, 71)"><circle cx="8" cy="8" r="4" stroke="none" fill="red" fill-opacity="0.3"/></g><g pointer-events="all" display="none" transform="translate(42, 71)"><circle cx="8" cy="8" r="4" stroke="none" fill="red" fill-opacity="0.3"/></g><g pointer-events="all" display="none" transform="translate(67, 71)"><circle cx="8" cy="8" r="4" stroke="none" fill="red" fill-opacity="0.3"/></g><g pointer-events="all" display="none" transform="translate(91, 12)"><circle cx="8" cy="8" r="4" stroke="none" fill="red" fill-opacity="0.3"/></g><g pointer-events="all" display="none" transform="translate(91, 32)"><circle cx="8" cy="8" r="4" stroke="none" fill="red" fill-opacity="0.3"/></g><g pointer-events="all" display="none" transform="translate(91, 52)"><circle cx="8" cy="8" r="4" stroke="none" fill="red" fill-opacity="0.3"/></g><g pointer-events="all" display="none" transform="translate(17, -7)"><circle cx="8" cy="8" r="4" stroke="none" fill="red" fill-opacity="0.3"/></g><g pointer-events="all" display="none" transform="translate(42, -7)"><circle cx="8" cy="8" r="4" stroke="none" fill="red" fill-opacity="0.3"/></g><g pointer-events="all" display="none" transform="translate(67, -7)"><circle cx="8" cy="8" r="4" stroke="none" fill="red" fill-opacity="0.3"/></g><g pointer-events="all" display="none" transform="translate(42, 32)"><circle cx="8" cy="8" r="4" stroke="none" fill="red" fill-opacity="0.3"/></g></g></g></g><g id="_78625E90-08F1-478F-98BE-FD43154095CC" bpmn2nodeid="_73FFB161-D359-4E09-B5B8-B514BE2C80F5"><g class="stencils" transform="translate(340, 166)"><g class="me"><g pointer-events="fill" id="_78625E90-08F1-478F-98BE-FD43154095CC">      <defs id="_78625E90-08F1-478F-98BE-FD43154095CC__78625E90-08F1-478F-98BE-FD43154095CC_5"> 		<radialGradient id="_78625E90-08F1-478F-98BE-FD43154095CCbackground" cx="10%" cy="10%" r="100%" fx="10%" fy="10%"> 			<stop offset="0%" stop-color="#ffffff" stop-opacity="1" id="_78625E90-08F1-478F-98BE-FD43154095CC__78625E90-08F1-478F-98BE-FD43154095CC_6"/> 			<stop id="_78625E90-08F1-478F-98BE-FD43154095CCfill_el" offset="100%" stop-color="#ff6347" stop-opacity="1"/> 		</radialGradient> 	</defs> 	     <circle id="_78625E90-08F1-478F-98BE-FD43154095CCbg_frame" cx="14" cy="14" r="14" stroke="#000000" fill="url(#_78625E90-08F1-478F-98BE-FD43154095CCbackground) white" stroke-width="3"/> 	<text font-size="11" id="_78625E90-08F1-478F-98BE-FD43154095CCtext_name" x="14" y="30" oryx:align="top center" stroke="black" stroke-width="0pt" letter-spacing="-0.01px" fill="#000000" text-anchor="middle" transform="rotate(0 14 30)" visibility="inherit" oryx:fontSize="11"/>   </g></g><g class="children" style="overflow:hidden"/><g class="edge"/></g><g class="controls"><g class="dockers"/><g class="magnets" transform="translate(340, 166)"><g pointer-events="all" display="none" transform="translate(6, 6)"><circle cx="8" cy="8" r="4" stroke="none" fill="red" fill-opacity="0.3"/></g></g></g></g></g><g class="edge"><g id="_5A09D8FD-43DD-4634-B7FD-20BAF1C67D25" bpmn2nodeid="_3A537163-AF56-422D-8F43-568721F7A2F6"><g class="stencils"><g class="me"><g pointer-events="painted" bpmn2nodeid="_A06566BA-AF1B-439F-BB59-4A8D7086B2AB"><path id="_5A09D8FD-43DD-4634-B7FD-20BAF1C67D25_1" d="M150.609375 180L194.15625 180 " stroke="#000000" fill="none" stroke-width="2" stroke-linecap="round" stroke-linejoin="round" marker-start="url(#_5A09D8FD-43DD-4634-B7FD-20BAF1C67D25start)" marker-end="url(#_5A09D8FD-43DD-4634-B7FD-20BAF1C67D25end)"/></g><text id="_5A09D8FD-43DD-4634-B7FD-20BAF1C67D25text_name" font-size="12" x="164.609375" y="166" oryx:edgePosition="startTop" stroke-width="0pt" letter-spacing="-0.01px" fill="#000000" text-anchor="start" transform="rotate(360 150.609375 180)" visibility="inherit" oryx:fontSize="12"/></g><g class="children" style="overflow:hidden"/><g class="edge"/></g><g class="controls"><g class="dockers"/><g class="magnets"/></g></g><g id="_AA0CE019-1B5E-44D7-B877-AD45F6C57752" bpmn2nodeid="_B5D15D97-5B93-4315-A0B4-75111DA3DD3A"><g class="stencils"><g class="me"><g pointer-events="painted" bpmn2nodeid="_DB9CAA0A-B57F-4F12-9FB1-14264C0D16F5"><path id="_AA0CE019-1B5E-44D7-B877-AD45F6C57752_1" d="M295.390625 180L339.375 180 " stroke="#000000" fill="none" stroke-width="2" stroke-linecap="round" stroke-linejoin="round" marker-start="url(#_AA0CE019-1B5E-44D7-B877-AD45F6C57752start)" marker-end="url(#_AA0CE019-1B5E-44D7-B877-AD45F6C57752end)"/></g><text id="_AA0CE019-1B5E-44D7-B877-AD45F6C57752text_name" font-size="12" x="309.390625" y="166" oryx:edgePosition="startTop" stroke-width="0pt" letter-spacing="-0.01px" fill="#000000" text-anchor="start" transform="rotate(360 295.390625 180)" visibility="inherit" oryx:fontSize="12"/></g><g class="children" style="overflow:hidden"/><g class="edge"/></g><g class="controls"><g class="dockers"/><g class="magnets"/></g></g></g><text id="_1C7236E8-0644-4A5A-96E9-59923AA47101" style="stroke-width:1;fill:rgb(177,194,214);font-family:arial;font-weight:bold" font-size="12" onclick="ORYX.Plugins.CanvasTitle.openTextualAnalysis()" onmouseover="ORYX.Plugins.CanvasTitle.addToolTip('_1C7236E8-0644-4A5A-96E9-59923AA47101')" transform="translate(10, 20)">MultiStageEmails v.1.0 (com.redhat.management.approval.MultiStageEmails)</text></g></g></svg>